<svg xmlns="http://www.w3.org/2000/svg" viewBox="0 0 512 512" fill="none">
  <rect width="512" height="512" rx="128" fill="#0a0f1a"/>
  <rect x="56" y="56" width="400" height="400" rx="96" fill="#1a237e" fill-opacity="0.3"/>
  <path d="M256 128c-70.7 0-128 57.3-128 128s57.3 128 128 128 128-57.3 128-128-57.3-128-128-128zm0 224c-52.9 0-96-43.1-96-96s43.1-96 96-96 96 43.1 96 96-43.1 96-96 96z" fill="#3b82f6"/>
  <path d="M256 192c-35.3 0-64 28.7-64 64s28.7 64 64 64 64-28.7 64-64-28.7-64-64-64zm0 96c-17.6 0-32-14.4-32-32s14.4-32 32-32 32 14.4 32 32-14.4 32-32 32z" fill="#3b82f6"/>
  <path d="M336 256h48M128 256h48M256 128v48M256 336v48" stroke="#3b82f6" stroke-width="16" stroke-linecap="round"/>
  <circle cx="256" cy="256" r="16" fill="#E53935"/>
</svg>
